<mxfile host="app.diagrams.net" agent="Mozilla/5.0 (Windows NT 10.0; Win64; x64) AppleWebKit/537.36 (KHTML, like Gecko) Chrome/141.0.0.0 Safari/537.36 Edg/141.0.0.0" version="28.2.8">
  <diagram name="Page-1" id="0783ab3e-0a74-02c8-0abd-f7b4e66b4bec">
    <mxGraphModel dx="2058" dy="1116" grid="1" gridSize="10" guides="1" tooltips="1" connect="1" arrows="1" fold="1" page="1" pageScale="1" pageWidth="850" pageHeight="1100" background="none" math="0" shadow="0">
      <root>
        <mxCell id="0" />
        <mxCell id="1" parent="0" />
        <mxCell id="1c1d494c118603dd-1" value="Pay Fees Online Flow" style="swimlane;html=1;childLayout=stackLayout;startSize=20;rounded=0;shadow=0;comic=0;labelBackgroundColor=none;strokeWidth=1;fontFamily=Verdana;fontSize=12;align=center;" parent="1" vertex="1">
          <mxGeometry x="40" y="20" width="770" height="1240" as="geometry" />
        </mxCell>
        <mxCell id="1c1d494c118603dd-2" value="Student" style="swimlane;html=1;startSize=20;" parent="1c1d494c118603dd-1" vertex="1">
          <mxGeometry y="20" width="250" height="1220" as="geometry" />
        </mxCell>
        <mxCell id="8YxvYCsztJRcjS1tSVxG-3" value="" style="edgeStyle=orthogonalEdgeStyle;rounded=0;orthogonalLoop=1;jettySize=auto;html=1;" edge="1" parent="1c1d494c118603dd-2" source="8YxvYCsztJRcjS1tSVxG-1" target="8YxvYCsztJRcjS1tSVxG-2">
          <mxGeometry relative="1" as="geometry" />
        </mxCell>
        <mxCell id="8YxvYCsztJRcjS1tSVxG-1" value="" style="ellipse;whiteSpace=wrap;html=1;rounded=0;shadow=0;comic=0;labelBackgroundColor=none;strokeWidth=1;fillColor=#000000;fontFamily=Verdana;fontSize=12;align=center;" vertex="1" parent="1c1d494c118603dd-2">
          <mxGeometry x="105" y="60" width="40" height="40" as="geometry" />
        </mxCell>
        <mxCell id="8YxvYCsztJRcjS1tSVxG-2" value="Query outstanding bills" style="rounded=1;whiteSpace=wrap;html=1;shadow=0;comic=0;labelBackgroundColor=none;strokeWidth=1;fontFamily=Verdana;fontSize=12;align=center;arcSize=50;" vertex="1" parent="1c1d494c118603dd-2">
          <mxGeometry x="42.5" y="160" width="165" height="30" as="geometry" />
        </mxCell>
        <mxCell id="8YxvYCsztJRcjS1tSVxG-12" value="" style="edgeStyle=orthogonalEdgeStyle;rounded=0;orthogonalLoop=1;jettySize=auto;html=1;" edge="1" parent="1c1d494c118603dd-2" source="8YxvYCsztJRcjS1tSVxG-9" target="8YxvYCsztJRcjS1tSVxG-11">
          <mxGeometry relative="1" as="geometry" />
        </mxCell>
        <mxCell id="8YxvYCsztJRcjS1tSVxG-9" value="Confirm bill and select payment method" style="whiteSpace=wrap;html=1;fontFamily=Verdana;rounded=1;shadow=0;comic=0;labelBackgroundColor=none;strokeWidth=1;arcSize=50;" vertex="1" parent="1c1d494c118603dd-2">
          <mxGeometry x="65" y="242.5" width="120" height="45" as="geometry" />
        </mxCell>
        <mxCell id="8YxvYCsztJRcjS1tSVxG-11" value="Click &quot;Pay Now&quot;" style="whiteSpace=wrap;html=1;fontFamily=Verdana;rounded=1;shadow=0;comic=0;labelBackgroundColor=none;strokeWidth=1;arcSize=50;" vertex="1" parent="1c1d494c118603dd-2">
          <mxGeometry x="65" y="350" width="120" height="30" as="geometry" />
        </mxCell>
        <mxCell id="8YxvYCsztJRcjS1tSVxG-19" value="Confirm payment" style="whiteSpace=wrap;html=1;fontFamily=Verdana;rounded=1;shadow=0;comic=0;labelBackgroundColor=none;strokeWidth=1;arcSize=50;" vertex="1" parent="1c1d494c118603dd-2">
          <mxGeometry x="60" y="450" width="120" height="60" as="geometry" />
        </mxCell>
        <mxCell id="8YxvYCsztJRcjS1tSVxG-43" value="" style="edgeStyle=orthogonalEdgeStyle;rounded=0;orthogonalLoop=1;jettySize=auto;html=1;" edge="1" parent="1c1d494c118603dd-2" source="8YxvYCsztJRcjS1tSVxG-40" target="8YxvYCsztJRcjS1tSVxG-42">
          <mxGeometry relative="1" as="geometry" />
        </mxCell>
        <mxCell id="8YxvYCsztJRcjS1tSVxG-40" value="View payment result" style="whiteSpace=wrap;html=1;fontFamily=Verdana;rounded=1;shadow=0;comic=0;labelBackgroundColor=none;strokeWidth=1;arcSize=50;" vertex="1" parent="1c1d494c118603dd-2">
          <mxGeometry x="65" y="1060" width="120" height="60" as="geometry" />
        </mxCell>
        <mxCell id="8YxvYCsztJRcjS1tSVxG-42" value="" style="shape=mxgraph.bpmn.shape;html=1;verticalLabelPosition=bottom;labelBackgroundColor=#ffffff;verticalAlign=top;perimeter=ellipsePerimeter;outline=end;symbol=terminate;rounded=0;shadow=0;comic=0;strokeWidth=1;fontFamily=Verdana;fontSize=12;align=center;" vertex="1" parent="1c1d494c118603dd-2">
          <mxGeometry x="105" y="1160" width="40" height="40" as="geometry" />
        </mxCell>
        <mxCell id="1c1d494c118603dd-3" value="System" style="swimlane;html=1;startSize=20;" parent="1c1d494c118603dd-1" vertex="1">
          <mxGeometry x="250" y="20" width="270" height="1220" as="geometry" />
        </mxCell>
        <mxCell id="8YxvYCsztJRcjS1tSVxG-7" value="" style="edgeStyle=orthogonalEdgeStyle;rounded=0;orthogonalLoop=1;jettySize=auto;html=1;" edge="1" parent="1c1d494c118603dd-3" source="8YxvYCsztJRcjS1tSVxG-4" target="8YxvYCsztJRcjS1tSVxG-6">
          <mxGeometry relative="1" as="geometry" />
        </mxCell>
        <mxCell id="8YxvYCsztJRcjS1tSVxG-4" value="Retrieve student&#39;s outstanding bills" style="whiteSpace=wrap;html=1;fontFamily=Verdana;rounded=1;shadow=0;comic=0;labelBackgroundColor=none;strokeWidth=1;arcSize=50;" vertex="1" parent="1c1d494c118603dd-3">
          <mxGeometry x="75" y="145" width="120" height="60" as="geometry" />
        </mxCell>
        <mxCell id="8YxvYCsztJRcjS1tSVxG-6" value="Display bill details" style="whiteSpace=wrap;html=1;fontFamily=Verdana;rounded=1;shadow=0;comic=0;labelBackgroundColor=none;strokeWidth=1;arcSize=50;" vertex="1" parent="1c1d494c118603dd-3">
          <mxGeometry x="75" y="250" width="120" height="30" as="geometry" />
        </mxCell>
        <mxCell id="8YxvYCsztJRcjS1tSVxG-13" value="Create payment order and request Payment Gateway" style="whiteSpace=wrap;html=1;fontFamily=Verdana;rounded=1;shadow=0;comic=0;labelBackgroundColor=none;strokeWidth=1;arcSize=50;" vertex="1" parent="1c1d494c118603dd-3">
          <mxGeometry x="75" y="335" width="120" height="60" as="geometry" />
        </mxCell>
        <mxCell id="8YxvYCsztJRcjS1tSVxG-26" value="" style="edgeStyle=orthogonalEdgeStyle;rounded=0;orthogonalLoop=1;jettySize=auto;html=1;" edge="1" parent="1c1d494c118603dd-3" source="8YxvYCsztJRcjS1tSVxG-21" target="8YxvYCsztJRcjS1tSVxG-25">
          <mxGeometry relative="1" as="geometry" />
        </mxCell>
        <mxCell id="8YxvYCsztJRcjS1tSVxG-21" value="Send asynchronous payment callback" style="whiteSpace=wrap;html=1;fontFamily=Verdana;rounded=1;shadow=0;comic=0;labelBackgroundColor=none;strokeWidth=1;arcSize=50;" vertex="1" parent="1c1d494c118603dd-3">
          <mxGeometry x="65" y="550" width="120" height="60" as="geometry" />
        </mxCell>
        <mxCell id="8YxvYCsztJRcjS1tSVxG-28" style="edgeStyle=orthogonalEdgeStyle;rounded=0;orthogonalLoop=1;jettySize=auto;html=1;entryX=0.5;entryY=0;entryDx=0;entryDy=0;" edge="1" parent="1c1d494c118603dd-3" source="8YxvYCsztJRcjS1tSVxG-25" target="8YxvYCsztJRcjS1tSVxG-27">
          <mxGeometry relative="1" as="geometry" />
        </mxCell>
        <mxCell id="8YxvYCsztJRcjS1tSVxG-31" value="Yes" style="edgeLabel;html=1;align=center;verticalAlign=middle;resizable=0;points=[];" vertex="1" connectable="0" parent="8YxvYCsztJRcjS1tSVxG-28">
          <mxGeometry x="-0.1556" relative="1" as="geometry">
            <mxPoint as="offset" />
          </mxGeometry>
        </mxCell>
        <mxCell id="8YxvYCsztJRcjS1tSVxG-33" style="edgeStyle=orthogonalEdgeStyle;rounded=0;orthogonalLoop=1;jettySize=auto;html=1;exitX=1;exitY=0.5;exitDx=0;exitDy=0;" edge="1" parent="1c1d494c118603dd-3" source="8YxvYCsztJRcjS1tSVxG-25" target="8YxvYCsztJRcjS1tSVxG-32">
          <mxGeometry relative="1" as="geometry" />
        </mxCell>
        <mxCell id="8YxvYCsztJRcjS1tSVxG-34" value="No" style="edgeLabel;html=1;align=center;verticalAlign=middle;resizable=0;points=[];" vertex="1" connectable="0" parent="8YxvYCsztJRcjS1tSVxG-33">
          <mxGeometry x="-0.2178" y="-2" relative="1" as="geometry">
            <mxPoint as="offset" />
          </mxGeometry>
        </mxCell>
        <mxCell id="8YxvYCsztJRcjS1tSVxG-25" value="Payment successful?" style="rhombus;whiteSpace=wrap;html=1;" vertex="1" parent="1c1d494c118603dd-3">
          <mxGeometry x="47.5" y="650" width="155" height="80" as="geometry" />
        </mxCell>
        <mxCell id="8YxvYCsztJRcjS1tSVxG-30" value="" style="edgeStyle=orthogonalEdgeStyle;rounded=0;orthogonalLoop=1;jettySize=auto;html=1;" edge="1" parent="1c1d494c118603dd-3" source="8YxvYCsztJRcjS1tSVxG-27" target="8YxvYCsztJRcjS1tSVxG-29">
          <mxGeometry relative="1" as="geometry" />
        </mxCell>
        <mxCell id="8YxvYCsztJRcjS1tSVxG-27" value="Update bill status to &quot;Paid&quot;" style="whiteSpace=wrap;html=1;fontFamily=Verdana;rounded=1;shadow=0;comic=0;labelBackgroundColor=none;strokeWidth=1;arcSize=50;" vertex="1" parent="1c1d494c118603dd-3">
          <mxGeometry x="15" y="770" width="120" height="60" as="geometry" />
        </mxCell>
        <mxCell id="8YxvYCsztJRcjS1tSVxG-29" value="Send payment success notification to Student" style="whiteSpace=wrap;html=1;fontFamily=Verdana;rounded=1;shadow=0;comic=0;labelBackgroundColor=none;strokeWidth=1;arcSize=50;" vertex="1" parent="1c1d494c118603dd-3">
          <mxGeometry x="15" y="860" width="120" height="60" as="geometry" />
        </mxCell>
        <mxCell id="8YxvYCsztJRcjS1tSVxG-36" value="" style="edgeStyle=orthogonalEdgeStyle;rounded=0;orthogonalLoop=1;jettySize=auto;html=1;" edge="1" parent="1c1d494c118603dd-3" source="8YxvYCsztJRcjS1tSVxG-32" target="8YxvYCsztJRcjS1tSVxG-35">
          <mxGeometry relative="1" as="geometry" />
        </mxCell>
        <mxCell id="8YxvYCsztJRcjS1tSVxG-32" value="Update bill status to &quot;Payment Failed&quot;" style="whiteSpace=wrap;html=1;fontFamily=Verdana;rounded=1;shadow=0;comic=0;labelBackgroundColor=none;strokeWidth=1;arcSize=50;" vertex="1" parent="1c1d494c118603dd-3">
          <mxGeometry x="150" y="770" width="120" height="60" as="geometry" />
        </mxCell>
        <mxCell id="8YxvYCsztJRcjS1tSVxG-35" value="Show payment failed message to Student" style="whiteSpace=wrap;html=1;fontFamily=Verdana;rounded=1;shadow=0;comic=0;labelBackgroundColor=none;strokeWidth=1;arcSize=50;" vertex="1" parent="1c1d494c118603dd-3">
          <mxGeometry x="150" y="860" width="120" height="60" as="geometry" />
        </mxCell>
        <mxCell id="8YxvYCsztJRcjS1tSVxG-37" value="" style="whiteSpace=wrap;html=1;rounded=0;shadow=0;comic=0;labelBackgroundColor=none;strokeWidth=1;fillColor=#000000;fontFamily=Verdana;fontSize=12;align=center;rotation=0;" vertex="1" parent="1c1d494c118603dd-3">
          <mxGeometry x="65" y="960" width="147" height="10" as="geometry" />
        </mxCell>
        <mxCell id="8YxvYCsztJRcjS1tSVxG-38" style="edgeStyle=orthogonalEdgeStyle;rounded=0;orthogonalLoop=1;jettySize=auto;html=1;exitX=0.5;exitY=1;exitDx=0;exitDy=0;entryX=0.367;entryY=-0.4;entryDx=0;entryDy=0;entryPerimeter=0;" edge="1" parent="1c1d494c118603dd-3" source="8YxvYCsztJRcjS1tSVxG-29" target="8YxvYCsztJRcjS1tSVxG-37">
          <mxGeometry relative="1" as="geometry" />
        </mxCell>
        <mxCell id="8YxvYCsztJRcjS1tSVxG-39" style="edgeStyle=orthogonalEdgeStyle;rounded=0;orthogonalLoop=1;jettySize=auto;html=1;entryX=0.653;entryY=-0.4;entryDx=0;entryDy=0;entryPerimeter=0;" edge="1" parent="1c1d494c118603dd-3" source="8YxvYCsztJRcjS1tSVxG-35" target="8YxvYCsztJRcjS1tSVxG-37">
          <mxGeometry relative="1" as="geometry" />
        </mxCell>
        <mxCell id="1c1d494c118603dd-4" value="Payment Gateway" style="swimlane;html=1;startSize=20;" parent="1c1d494c118603dd-1" vertex="1">
          <mxGeometry x="520" y="20" width="250" height="1220" as="geometry" />
        </mxCell>
        <mxCell id="8YxvYCsztJRcjS1tSVxG-18" value="" style="edgeStyle=orthogonalEdgeStyle;rounded=0;orthogonalLoop=1;jettySize=auto;html=1;" edge="1" parent="1c1d494c118603dd-4" source="8YxvYCsztJRcjS1tSVxG-15" target="8YxvYCsztJRcjS1tSVxG-17">
          <mxGeometry relative="1" as="geometry" />
        </mxCell>
        <mxCell id="8YxvYCsztJRcjS1tSVxG-15" value="Process payment request" style="whiteSpace=wrap;html=1;fontFamily=Verdana;rounded=1;shadow=0;comic=0;labelBackgroundColor=none;strokeWidth=1;arcSize=50;" vertex="1" parent="1c1d494c118603dd-4">
          <mxGeometry x="65" y="335" width="120" height="60" as="geometry" />
        </mxCell>
        <mxCell id="8YxvYCsztJRcjS1tSVxG-17" value="Display payment interface" style="whiteSpace=wrap;html=1;fontFamily=Verdana;rounded=1;shadow=0;comic=0;labelBackgroundColor=none;strokeWidth=1;arcSize=50;" vertex="1" parent="1c1d494c118603dd-4">
          <mxGeometry x="65" y="450" width="120" height="60" as="geometry" />
        </mxCell>
        <mxCell id="8YxvYCsztJRcjS1tSVxG-5" value="" style="edgeStyle=orthogonalEdgeStyle;rounded=0;orthogonalLoop=1;jettySize=auto;html=1;" edge="1" parent="1c1d494c118603dd-1" source="8YxvYCsztJRcjS1tSVxG-2" target="8YxvYCsztJRcjS1tSVxG-4">
          <mxGeometry relative="1" as="geometry" />
        </mxCell>
        <mxCell id="8YxvYCsztJRcjS1tSVxG-10" value="" style="edgeStyle=orthogonalEdgeStyle;rounded=0;orthogonalLoop=1;jettySize=auto;html=1;" edge="1" parent="1c1d494c118603dd-1" source="8YxvYCsztJRcjS1tSVxG-6" target="8YxvYCsztJRcjS1tSVxG-9">
          <mxGeometry relative="1" as="geometry" />
        </mxCell>
        <mxCell id="8YxvYCsztJRcjS1tSVxG-14" value="" style="edgeStyle=orthogonalEdgeStyle;rounded=0;orthogonalLoop=1;jettySize=auto;html=1;" edge="1" parent="1c1d494c118603dd-1" source="8YxvYCsztJRcjS1tSVxG-11" target="8YxvYCsztJRcjS1tSVxG-13">
          <mxGeometry relative="1" as="geometry" />
        </mxCell>
        <mxCell id="8YxvYCsztJRcjS1tSVxG-16" value="" style="edgeStyle=orthogonalEdgeStyle;rounded=0;orthogonalLoop=1;jettySize=auto;html=1;" edge="1" parent="1c1d494c118603dd-1" source="8YxvYCsztJRcjS1tSVxG-13" target="8YxvYCsztJRcjS1tSVxG-15">
          <mxGeometry relative="1" as="geometry" />
        </mxCell>
        <mxCell id="8YxvYCsztJRcjS1tSVxG-20" value="" style="edgeStyle=orthogonalEdgeStyle;rounded=0;orthogonalLoop=1;jettySize=auto;html=1;" edge="1" parent="1c1d494c118603dd-1" source="8YxvYCsztJRcjS1tSVxG-17" target="8YxvYCsztJRcjS1tSVxG-19">
          <mxGeometry relative="1" as="geometry" />
        </mxCell>
        <mxCell id="8YxvYCsztJRcjS1tSVxG-22" value="" style="edgeStyle=orthogonalEdgeStyle;rounded=0;orthogonalLoop=1;jettySize=auto;html=1;entryX=0;entryY=0.5;entryDx=0;entryDy=0;" edge="1" parent="1c1d494c118603dd-1" source="8YxvYCsztJRcjS1tSVxG-19" target="8YxvYCsztJRcjS1tSVxG-21">
          <mxGeometry relative="1" as="geometry">
            <Array as="points">
              <mxPoint x="120" y="600" />
            </Array>
          </mxGeometry>
        </mxCell>
        <mxCell id="8YxvYCsztJRcjS1tSVxG-41" style="edgeStyle=orthogonalEdgeStyle;rounded=0;orthogonalLoop=1;jettySize=auto;html=1;entryX=0.5;entryY=0;entryDx=0;entryDy=0;exitX=0.5;exitY=1;exitDx=0;exitDy=0;" edge="1" parent="1c1d494c118603dd-1" source="8YxvYCsztJRcjS1tSVxG-37" target="8YxvYCsztJRcjS1tSVxG-40">
          <mxGeometry relative="1" as="geometry">
            <Array as="points">
              <mxPoint x="389" y="1030" />
              <mxPoint x="125" y="1030" />
            </Array>
          </mxGeometry>
        </mxCell>
      </root>
    </mxGraphModel>
  </diagram>
</mxfile>
